<svg xmlns="http://www.w3.org/2000/svg" viewBox="0 0 512 512"><g><path fill="#fff" d="M349.7 289.6c.3-36.2 29.6-53.6 30.9-54.4-16.9-24.7-43.2-28.1-52.5-28.5-22.3-2.3-43.5 13.1-54.8 13.1-11.3 0-28.7-12.8-47.2-12.4-24.3.4-46.8 14.1-59.3 35.8-25.3 43.8-6.5 108.6 18.1 144.2 12 17.2 26.2 36.5 44.9 35.8 18.1-.7 25-11.6 47-11.6 22 0 28.2 11.6 47.2 11.2 19.6-.4 31.9-17.5 43.7-34.8 13.8-20.1 19.5-39.6 19.8-40.6-.4-.2-37.9-14.6-38.2-57.2zM312.2 120.7c10.1-12.2 16.9-29.2 15-46.1-14.5.6-32.1 9.7-42.5 21.9-9.3 10.8-17.5 28.1-14.4 44.7 16.9 1.3 31.8-8.6 41.9-20.5z"/></g></svg>
